<svg width="16" height="16" viewBox="0 0 16 16" fill="none" xmlns="http://www.w3.org/2000/svg">
<path d="M6.75038 13.8028C3.2033 13.8028 0.317535 10.9171 0.317535 7.36999C0.317535 3.82291 3.2033 0.937141 6.75038 0.937141C10.2975 0.937141 13.1832 3.82291 13.1832 7.36999C13.1832 10.9171 10.2975 13.8028 6.75038 13.8028ZM6.75038 1.50163C3.51434 1.50163 0.882375 4.13431 0.882375 7.36963C0.882375 10.6049 3.5147 13.2376 6.75038 13.2376C9.98606 13.2376 12.6184 10.6053 12.6184 7.36963C12.6184 4.13395 9.98606 1.50163 6.75038 1.50163Z" fill="white" stroke="white" stroke-width="0.3"/>
<path d="M11.2644 11.4835L10.881 11.8668L14.3173 15.3031L14.7007 14.9198L11.2644 11.4835Z" fill="white" stroke="white" stroke-width="0.3"/>
</svg>
